<svg width="20" height="20" viewBox="0 0 20 20" fill="none" xmlns="http://www.w3.org/2000/svg">
<path fill-rule="evenodd" clip-rule="evenodd" d="M9.87041 18.0516C6.79394 18.0516 4.16666 17.5728 4.16666 15.6556C4.16666 13.7383 6.77727 11.9683 9.87041 11.9683C12.947 11.9683 15.5742 13.7211 15.5742 15.6384C15.5742 17.5549 12.9637 18.0516 9.87041 18.0516Z" stroke="#B2B2B2" stroke-width="1.5" stroke-linecap="round" stroke-linejoin="round"/>
<path fill-rule="evenodd" clip-rule="evenodd" d="M9.86433 9.31143C11.8833 9.31143 13.5197 7.67503 13.5197 5.6561C13.5197 3.63716 11.8833 2.00003 9.86433 2.00003C7.84543 2.00003 6.20832 3.63716 6.20832 5.6561C6.2015 7.66821 7.8265 9.3046 9.83858 9.31143C9.84767 9.31143 9.856 9.31143 9.86433 9.31143Z" stroke="#B2B2B2" stroke-width="1.5" stroke-linecap="round" stroke-linejoin="round"/>
</svg>
