<svg width="17" height="18" viewBox="0 0 17 18" fill="none" xmlns="http://www.w3.org/2000/svg">
<path fill-rule="evenodd" clip-rule="evenodd" d="M11.76 16.7684H4.80347C2.24817 16.7684 0.287833 15.8454 0.84466 12.1307L1.49302 7.09638C1.83627 5.24283 3.01857 4.53345 4.05595 4.53345H12.538C13.5907 4.53345 14.7043 5.29622 15.101 7.09638L15.7493 12.1307C16.2222 15.4259 14.3153 16.7684 11.76 16.7684Z" stroke="#B2B2B2" stroke-width="1.5" stroke-linecap="round" stroke-linejoin="round"/>
<path d="M11.8744 4.35037C11.8744 2.36198 10.2625 0.750032 8.2741 0.750032C7.3166 0.746007 6.39692 1.12353 5.71843 1.79916C5.03994 2.47479 4.65854 3.39286 4.65854 4.35037" stroke="#B2B2B2" stroke-width="1.5" stroke-linecap="round" stroke-linejoin="round"/>
<path d="M10.7455 8.10324H10.7074" stroke="#B2B2B2" stroke-width="1.5" stroke-linecap="round" stroke-linejoin="round"/>
<path d="M5.88662 8.10324H5.84848" stroke="#B2B2B2" stroke-width="1.5" stroke-linecap="round" stroke-linejoin="round"/>
</svg>
